<svg width="201" height="37" viewBox="0 0 201 37" fill="none" xmlns="http://www.w3.org/2000/svg">
<g clip-path="url(#clip0_445_757)">
<path d="M28.0857 28.073H11.4754C11.2068 27.6248 10.7125 27.3223 10.141 27.3223C9.56954 27.3223 9.08092 27.6248 8.80946 28.073H7.02071C6.7664 28.073 6.56067 28.2746 6.56067 28.5267V29.1654C6.56067 29.4147 6.76355 29.6192 7.02071 29.6192H8.80946C9.08092 30.0674 9.5724 30.3699 10.141 30.3699C10.7097 30.3699 11.2068 30.0674 11.4754 29.6192H28.0857C28.34 29.6192 28.5457 29.4175 28.5457 29.1654V28.5267C28.5457 28.2774 28.3428 28.073 28.0857 28.073Z" fill="#F8F8F8"/>
<path d="M21.2793 25.1739C21.3079 25.1907 21.3393 25.2019 21.3736 25.2019C21.4022 25.2019 21.4393 25.1907 21.465 25.1739L26.5798 22.2803C26.637 22.2467 26.6712 22.1851 26.6712 22.1206C26.6712 22.0562 26.637 21.9946 26.5798 21.961L21.465 19.0646C21.4079 19.0338 21.3336 19.0338 21.2764 19.0646C21.2193 19.0982 21.1821 19.1599 21.1821 19.2271V25.0142C21.1821 25.0842 21.2193 25.143 21.2764 25.1767" fill="#F8F8F8"/>
<path d="M46.0903 9.6864C46.0903 9.60797 46.0646 9.52954 46.0074 9.46512C45.8817 9.33626 45.6788 9.32506 45.5388 9.44271L41.4927 13.0449H39.0982V10.7676C39.0982 10.5884 38.9496 10.4455 38.7696 10.4455H30.1001V4.52674C30.1001 4.52674 30.1001 4.49873 30.1001 4.48192C30.0859 4.08416 30.0287 3.73122 29.923 3.41469C29.8087 3.08136 29.6372 2.78724 29.4029 2.54915C29.1715 2.30545 28.88 2.12338 28.5314 1.99453C28.2028 1.87128 27.8171 1.80405 27.3742 1.78164H22.9937C22.8566 1.31105 22.5794 0.890885 22.2136 0.582762C21.785 0.224218 21.2221 0.00292969 20.6135 0.00292969H7.11499C6.43207 0.00292969 5.81486 0.274638 5.36625 0.714414C4.92049 1.15419 4.6376 1.75923 4.6376 2.4287C4.6376 3.09817 4.92049 3.70601 5.36625 4.14299C5.81486 4.58276 6.43207 4.85167 7.11499 4.85167H20.6106C21.2193 4.85167 21.7822 4.63318 22.2108 4.27464C22.5765 3.96371 22.8566 3.54355 22.9909 3.07576H27.3056C27.5913 3.08696 27.8285 3.12618 28.0199 3.1878L28.0342 3.19341C28.2085 3.25503 28.3428 3.33626 28.4514 3.4399C28.5514 3.54635 28.6314 3.6892 28.6857 3.85447C28.7429 4.04495 28.7714 4.25783 28.7857 4.50713C28.78 4.51553 28.78 4.52394 28.78 4.53234V10.4539H0.328604C0.145729 10.4539 0 10.5968 0 10.776V36.6864C0 36.8629 0.145729 37.0085 0.328604 37.0085H38.7724C38.9524 37.0085 39.101 36.8629 39.101 36.6864V26.4007H41.4041L45.5217 30.059C45.5845 30.1234 45.6703 30.1626 45.7703 30.1626C45.9503 30.1626 46.0989 30.0197 46.0989 29.8405V9.6864H46.0932H46.0903ZM30.103 29.1122V32.7228C30.103 32.9133 29.9516 33.0618 29.7601 33.0618H4.98335C4.79476 33.0618 4.6376 32.9133 4.6376 32.7228V14.72C4.6376 14.5323 4.79476 14.3867 4.98335 14.3867H29.7601C29.9516 14.3867 30.103 14.5323 30.103 14.72V29.115V29.1122Z" fill="#F8F8F8"/>
<path d="M13.567 24.2579H9.80667V22.5464H13.1184V21.3783H9.80667V19.9609H13.4042V18.8013H8.43225V25.4343H13.567V24.2579Z" fill="#F8F8F8"/>
<path d="M15.4844 22.8378H16.9931C17.4017 22.8378 17.6818 22.9078 17.8275 23.0423C17.9761 23.1796 18.0532 23.4064 18.0532 23.7286V25.4373H19.4391V23.5605C19.4391 23.1711 19.3762 22.8826 19.2476 22.6894C19.1219 22.4961 18.9105 22.3532 18.6104 22.2608C18.9362 22.1459 19.1876 21.9555 19.3591 21.6753C19.5334 21.4008 19.6191 21.0843 19.6191 20.723C19.6191 20.4513 19.5705 20.1964 19.4734 19.9583C19.3762 19.7202 19.2305 19.5185 19.0505 19.3476C18.8676 19.1796 18.6476 19.0451 18.3933 18.9499C18.1389 18.8518 17.8589 18.8042 17.5417 18.8042H14.1071V25.4401H15.4844V22.8406V22.8378ZM15.4844 19.9499H17.3103C17.6646 19.9499 17.9161 20.0339 18.0675 20.1992C18.2218 20.3644 18.299 20.5773 18.299 20.8378C18.299 21.0983 18.219 21.3028 18.0647 21.4681C17.9075 21.6361 17.6389 21.7174 17.256 21.7174H15.4844V19.9471V19.9499Z" fill="#F8F8F8"/>
<path d="M66.4066 29.1878H56.257V11.5996H66.4066V14.031H59.1916V18.8181H65.9523V21.2243H59.1916V26.7481H66.4066V29.1878Z" fill="#F8F8F8"/>
<path d="M71.8529 10.4707H68.9697V29.1878H71.8529V10.4707Z" fill="#F8F8F8"/>
<path d="M85.1428 22.1626V29.1878H82.2082V11.5996H87.2773C89.5918 11.5996 91.3062 12.0254 92.4178 12.8769C93.5293 13.7285 94.0865 15.0086 94.0865 16.7257C94.0865 18.9133 92.9235 20.4708 90.6005 21.4063L95.6695 29.1878H92.3321L88.0373 22.1626H85.1399H85.1428ZM85.1428 19.7817H87.1801C88.5431 19.7817 89.5346 19.5296 90.149 19.0366C90.7633 18.538 91.0719 17.8013 91.0719 16.8237C91.0719 15.8265 90.7405 15.1122 90.0747 14.6808C89.4118 14.2467 88.4145 14.031 87.083 14.031H85.1428V19.7817Z" fill="#F8F8F8"/>
<path d="M102.887 29.4288C100.779 29.4288 99.127 28.8266 97.9354 27.6193C96.7467 26.412 96.1524 24.7482 96.1524 22.6333C96.1524 20.4597 96.7039 18.7538 97.8097 17.5101C98.9127 16.2664 100.43 15.6445 102.362 15.6445C104.153 15.6445 105.57 16.1767 106.608 17.244C107.645 18.3112 108.165 19.779 108.165 21.6473V23.1739H99.1213C99.1641 24.4653 99.5185 25.4569 100.187 26.1515C100.859 26.8434 101.802 27.1908 103.022 27.1908C103.822 27.1908 104.57 27.1179 105.262 26.9667C105.953 26.821 106.696 26.5745 107.488 26.2272V28.5241C106.785 28.8546 106.073 29.0871 105.353 29.2216C104.633 29.3588 103.813 29.426 102.887 29.426M102.359 17.7818C101.442 17.7818 100.707 18.0647 100.156 18.6333C99.6042 19.2048 99.2756 20.0339 99.1698 21.1235H105.328C105.313 20.0283 105.039 19.1936 104.516 18.6277C103.993 18.0619 103.273 17.779 102.356 17.779" fill="#F8F8F8"/>
<path d="M119.552 25.3978C119.552 26.6975 119.069 27.6919 118.106 28.3866C117.14 29.0784 115.757 29.4258 113.96 29.4258C112.154 29.4258 110.7 29.1569 109.602 28.6219V26.1793C111.197 26.8992 112.683 27.2577 114.054 27.2577C115.832 27.2577 116.717 26.7311 116.717 25.6835C116.717 25.3446 116.62 25.0644 116.426 24.8404C116.229 24.6135 115.906 24.3838 115.454 24.1429C115.003 23.902 114.377 23.6303 113.577 23.3249C112.014 22.7311 110.957 22.1373 110.402 21.5434C109.851 20.9524 109.574 20.1793 109.574 19.2353C109.574 18.0981 110.045 17.2129 110.98 16.5826C111.917 15.9524 113.191 15.6387 114.803 15.6387C116.397 15.6387 117.906 15.9552 119.332 16.5883L118.398 18.7171C116.935 18.1261 115.703 17.8291 114.706 17.8291C113.183 17.8291 112.423 18.2549 112.423 19.1037C112.423 19.521 112.623 19.874 113.017 20.1625C113.414 20.451 114.277 20.8488 115.614 21.353C116.734 21.7787 117.549 22.1709 118.055 22.521C118.563 22.8768 118.938 23.2829 119.183 23.7451C119.429 24.2045 119.552 24.7563 119.552 25.3978Z" fill="#F8F8F8"/>
<path d="M130.156 29.1876L129.579 27.3332H129.481C128.83 28.1456 128.17 28.6974 127.507 28.9915C126.844 29.2828 125.993 29.4313 124.955 29.4313C123.621 29.4313 122.581 29.0783 121.832 28.3725C121.083 27.6638 120.709 26.6666 120.709 25.3753C120.709 24.0055 121.229 22.9719 122.266 22.2716C123.307 21.5769 124.89 21.1932 127.018 21.1288L129.361 21.0587V20.3473C129.361 19.4957 129.156 18.8599 128.753 18.4397C128.35 18.0195 127.718 17.8094 126.87 17.8094C126.173 17.8094 125.507 17.9075 124.87 18.112C124.232 18.3136 123.618 18.5461 123.029 18.8206L122.098 16.801C122.832 16.4257 123.641 16.1372 124.515 15.9411C125.387 15.745 126.215 15.647 126.993 15.647C128.719 15.647 130.022 16.0139 130.902 16.7506C131.779 17.4901 132.219 18.6498 132.219 20.2296V29.1904H130.159L130.156 29.1876ZM125.861 27.2604C126.907 27.2604 127.747 26.9775 128.381 26.4005C129.016 25.829 129.333 25.0251 129.333 23.9887V22.8346L127.59 22.9047C126.233 22.9551 125.244 23.1792 124.627 23.5741C124.007 23.9691 123.701 24.5769 123.701 25.3977C123.701 25.9915 123.881 26.4509 124.241 26.7758C124.598 27.1008 125.138 27.2604 125.858 27.2604" fill="#F8F8F8"/>
<path d="M138.119 10.4707H135.236V29.1878H138.119V10.4707Z" fill="#F8F8F8"/>
<path d="M146.292 27.143C146.995 27.143 147.698 27.0338 148.401 26.8181V28.947C148.083 29.0842 147.672 29.1991 147.169 29.2887C146.666 29.3811 146.143 29.4259 145.603 29.4259C142.871 29.4259 141.506 28.017 141.506 25.1935V18.0226H139.654V16.7705L141.643 15.7369L142.623 12.9189H144.4V15.8769H148.266V18.0198H144.4V25.1402C144.4 25.8209 144.574 26.3251 144.92 26.65C145.266 26.975 145.726 27.1374 146.289 27.1374" fill="#F8F8F8"/>
<path d="M158.602 29.1876L158.024 27.3332H157.927C157.276 28.1456 156.616 28.6974 155.953 28.9915C155.29 29.2828 154.438 29.4313 153.401 29.4313C152.067 29.4313 151.026 29.0783 150.278 28.3725C149.529 27.6638 149.155 26.6666 149.155 25.3753C149.155 24.0055 149.675 22.9719 150.712 22.2716C151.752 21.5769 153.335 21.1932 155.464 21.1288L157.807 21.0587V20.3473C157.807 19.4957 157.601 18.8599 157.199 18.4397C156.796 18.0195 156.164 17.8094 155.315 17.8094C154.618 17.8094 153.952 17.9075 153.315 18.112C152.678 18.3136 152.064 18.5461 151.475 18.8206L150.544 16.801C151.278 16.4257 152.087 16.1372 152.961 15.9411C153.832 15.745 154.661 15.647 155.438 15.647C157.164 15.647 158.467 16.0139 159.347 16.7506C160.225 17.4901 160.665 18.6498 160.665 20.2296V29.1904H158.604L158.602 29.1876ZM154.307 27.2604C155.353 27.2604 156.193 26.9775 156.827 26.4005C157.461 25.829 157.779 25.0251 157.779 23.9887V22.8346L156.036 22.9047C154.678 22.9551 153.69 23.1792 153.072 23.5741C152.452 23.9691 152.147 24.5769 152.147 25.3977C152.147 25.9915 152.327 26.4509 152.687 26.7758C153.044 27.1008 153.584 27.2604 154.304 27.2604" fill="#F8F8F8"/>
<path d="M168.257 29.4287C166.562 29.4287 165.242 28.8264 164.293 27.6248C163.345 26.4231 162.873 24.7368 162.873 22.5603C162.873 20.3811 163.353 18.6808 164.316 17.4679C165.276 16.2522 166.608 15.6444 168.308 15.6444C170.091 15.6444 171.451 16.2886 172.383 17.5771H172.531C172.391 16.622 172.323 15.8713 172.323 15.3194V10.4707H175.22V29.1878H172.963L172.457 27.4427H172.323C171.4 28.7676 170.045 29.4287 168.26 29.4287M169.034 27.1458C170.22 27.1458 171.086 26.818 171.623 26.1626C172.16 25.5099 172.44 24.4483 172.457 22.9833V22.5855C172.457 20.9105 172.18 19.72 171.623 19.0141C171.066 18.3082 170.197 17.9553 169.011 17.9553C167.997 17.9553 167.214 18.3559 166.665 19.1626C166.119 19.9693 165.845 21.1178 165.845 22.608C165.845 24.0813 166.108 25.2074 166.642 25.9805C167.174 26.7564 167.971 27.143 169.034 27.143" fill="#F8F8F8"/>
<path d="M190.37 22.5129C190.37 24.6865 189.805 26.3812 188.667 27.6025C187.527 28.821 185.947 29.4316 183.915 29.4316C182.65 29.4316 181.529 29.1487 180.552 28.5885C179.578 28.0283 178.829 27.2216 178.306 26.1711C177.783 25.1207 177.521 23.9022 177.521 22.5129C177.521 20.356 178.086 18.6697 179.215 17.4625C180.344 16.2496 181.935 15.6445 183.99 15.6445C185.953 15.6445 187.504 16.2636 188.653 17.5017C189.796 18.7426 190.37 20.412 190.37 22.5129ZM180.492 22.5129C180.492 25.5857 181.649 27.1179 183.964 27.1179C186.256 27.1179 187.399 25.5857 187.399 22.5129C187.399 19.4737 186.247 17.9555 183.941 17.9555C182.73 17.9555 181.852 18.3476 181.309 19.1319C180.767 19.9218 180.495 21.0451 180.495 22.5129" fill="#F8F8F8"/>
<path d="M199.563 15.6445C200.146 15.6445 200.623 15.6865 201 15.765L200.717 18.398C200.309 18.3028 199.883 18.2524 199.44 18.2524C198.285 18.2524 197.351 18.6221 196.637 19.3616C195.92 20.0983 195.562 21.0563 195.562 22.2384V29.1908H192.679V15.8854H194.937L195.317 18.23H195.465C195.917 17.4344 196.5 16.807 197.225 16.3392C197.951 15.877 198.728 15.6445 199.563 15.6445Z" fill="#F8F8F8"/>
</g>
<defs>
<clipPath id="clip0_445_757">
<rect width="201" height="37" fill="white"/>
</clipPath>
</defs>
</svg>
